<svg xmlns="http://www.w3.org/2000/svg" version="1.1" xmlns:xlink="http://www.w3.org/1999/xlink" xmlns:svgjs="http://svgjs.dev/svgjs" width="2000" height="1247" viewBox="0 0 2000 1247"><g transform="matrix(1,0,0,1,-1.2121212121210192,0.504858299595071)"><svg viewBox="0 0 396 247" data-background-color="#e9efe7" preserveAspectRatio="xMidYMid meet" height="1247" width="2000" xmlns="http://www.w3.org/2000/svg" xmlns:xlink="http://www.w3.org/1999/xlink"><g id="tight-bounds" transform="matrix(1,0,0,1,0.23999999999995225,-0.09999999999999432)"><svg viewBox="0 0 395.52 247.2" height="247.2" width="395.52"><g><svg></svg></g><g><svg viewBox="0 0 395.52 247.2" height="247.2" width="395.52"><mask id="1412976f-a1f0-4ef2-83ea-952bb79d9a15"><rect width="395.52" height="247.2" fill="white"></rect><g transform="matrix(1,0,0,1,0,38.75754036376944)" id="clone"><svg viewBox="0 0 395.52 169.68491927246112" height="169.68491927246112" width="395.52"><g><svg viewBox="0 0 395.52 169.68491927246112" height="169.68491927246112" width="395.52"><g><svg viewBox="0 0 403.34038577762726 173.04000000000002" height="169.68491927246112" width="395.52"><g><svg viewBox="0 0 235.60979078485911 173.04000000000002" height="173.04000000000002" width="235.60979078485911"><g id="SvgjsG1566"><svg viewBox="0 0 235.60979078485911 173.04000000000002" height="173.04000000000002" width="235.60979078485911" id="SvgjsSvg1565"><g><svg viewBox="0 0 235.60979078485911 173.04000000000002" height="173.04000000000002" width="235.60979078485911"><g transform="matrix(1,0,0,1,0,0)"><svg width="235.60979078485911" viewBox="-0.7999999999999998 -38.38 55.97 41.38" height="173.04000000000002" data-palette-color="#2a2c35"><path d="M6.15-4.47L6.15-30.52Q6.15-33.45 2.78-33.45L2.78-33.45Q2.25-33.45 2.25-33.64L2.25-33.64 2.25-34.23Q2.25-34.42 2.44-34.42L2.44-34.42 14.67-34.42Q14.87-34.42 14.87-34.23L14.87-34.23 14.87-33.64Q14.87-33.45 13.79-33.45 12.72-33.45 11.82-32.76 10.91-32.08 10.91-29.96L10.91-29.96 10.91-3.91Q10.91-0.98 14.31-0.98L14.31-0.98Q14.82-0.98 14.82-0.78L14.82-0.78 14.82-0.2Q14.82 0 14.62 0L14.62 0 2.39 0Q2.2 0 2.2-0.2L2.2-0.2 2.2-0.78Q2.2-0.98 3.27-0.98 4.35-0.98 5.25-1.66 6.15-2.34 6.15-4.47L6.15-4.47ZM26.8-0.2L26.8-0.78Q26.8-0.98 27.02-0.98L27.02-0.98 27.71-0.98Q30.1-0.98 31.55-2 33.01-3.03 33.01-4.39L33.01-4.39 33.01-31.42Q33.01-31.93 32.8-31.99 32.59-32.06 32.3-32.1L32.3-32.1 22.92-32.1Q20.65-31.62 19.94-28.61L19.94-28.61Q19.55-27 19.48-26.55 19.41-26.1 19.21-26.1L19.21-26.1 18.77-26.1Q18.63-26.1 18.63-26.2L18.63-26.2 18.63-27 19.53-34.62Q19.68-35.38 20.02-35.38 20.36-35.38 20.75-34.9 21.14-34.42 22.24-34.42L22.24-34.42 48.56-34.42Q49.61-34.42 49.83-34.67 50.05-34.91 50.24-35.14 50.44-35.38 50.74-35.38 51.05-35.38 51.13-35.13 51.22-34.89 51.27-34.62L51.27-34.62 52.17-27 52.17-26.2Q52.17-26.1 52.02-26.1L52.02-26.1 51.58-26.1Q51.39-26.1 51.32-26.46L51.32-26.46Q50.93-28.91 50.19-30.33 49.46-31.76 47.87-32.1L47.87-32.1 38.47-32.1Q38.18-32.06 37.97-31.99 37.77-31.93 37.77-31.42L37.77-31.42 37.77-4.39Q37.77-3.03 39.22-2 40.67-0.98 43.06-0.98L43.06-0.98 43.77-0.98Q43.97-0.98 43.97-0.78L43.97-0.78 43.97-0.2Q43.97 0 43.77 0L43.77 0 27 0Q26.8 0 26.8-0.2L26.8-0.2Z" opacity="1" transform="matrix(1,0,0,1,0,0)" fill="black" class="wordmark-text-0" id="SvgjsPath1564" stroke-width="5" stroke="black" stroke-linejoin="round"></path></svg></g></svg></g></svg></g></svg></g><g transform="matrix(1,0,0,1,257.73353507258435,13.716346715099391)"><svg viewBox="0 0 145.60685070504294 145.60730656980124" height="145.60730656980124" width="145.60685070504294"><g><svg xmlns="http://www.w3.org/2000/svg" xmlns:xlink="http://www.w3.org/1999/xlink" version="1.1" x="0" y="0" viewBox="10.07425 10.073749999999997 79.85199999999998 79.85225" enable-background="new 0 0 100 100" xml:space="preserve" height="145.60730656980124" width="145.60685070504294" class="icon-icon-0" data-fill-palette-color="accent" id="SvgjsSvg1563"><g fill="black" stroke-width="5" stroke="black" stroke-linejoin="round"><path fill="black" d="M26.032 26.031c-9.711 9.71-9.711 25.453 0 35.163 9.711 9.713 25.455 9.713 35.166 0 9.71-9.71 9.71-25.452 0.001-35.163C51.485 16.32 35.742 16.32 26.032 26.031zM58.244 53.829c0 2.683-2.184 4.865-4.865 4.865h-3.086v3.784h-2.117v-3.784h-3.38v3.784h-2.117v-3.784H39.21v3.784h-2.117v-3.784h-3.086c-2.683 0-4.866-2.183-4.866-4.865V34.458c0-2.683 2.183-4.865 4.866-4.865h3.086v-3.965h2.117v3.965h3.469v-3.965h2.117v3.965h3.38v-3.965h2.117v3.965h3.086c2.682 0 4.865 2.182 4.865 4.865V53.829z" stroke-width="5" stroke="black" stroke-linejoin="round"></path><path fill="black" d="M53.379 30.673H34.007c-2.086 0-3.784 1.698-3.784 3.784v19.372c0 2.086 1.698 3.784 3.784 3.784h19.372c2.087 0 3.784-1.698 3.784-3.784V34.458C57.163 32.371 55.466 30.673 53.379 30.673zM54.437 50.563c0 2.388-1.937 4.324-4.324 4.324h-12.84c-2.388 0-4.325-1.937-4.325-4.324v-12.84c0-2.389 1.937-4.325 4.325-4.325h12.84c2.388 0 4.324 1.937 4.324 4.325V50.563z" stroke-width="5" stroke="black" stroke-linejoin="round"></path><path d="M88.064 79.066L71.396 62.4c8.845-13.048 7.494-30.943-4.064-42.502-13.1-13.099-34.336-13.099-47.435 0C6.8 32.995 6.8 54.232 19.897 67.329 31.458 78.89 49.353 80.239 62.4 71.395l16.668 16.668c2.483 2.484 6.512 2.484 8.996 0C90.547 85.577 90.547 81.551 88.064 79.066zM61.197 61.194c-9.711 9.713-25.454 9.713-35.166 0-9.711-9.71-9.711-25.453 0-35.163 9.71-9.711 25.454-9.711 35.167 0C70.907 35.742 70.907 51.484 61.197 61.194z" fill="black" stroke-width="5" stroke="black" stroke-linejoin="round"></path><path d="M50.112 33.398h-12.84c-2.388 0-4.325 1.937-4.325 4.325v12.84c0 2.388 1.937 4.324 4.325 4.324h12.84c2.388 0 4.324-1.937 4.324-4.324v-12.84C54.437 35.335 52.5 33.398 50.112 33.398z" fill="black" stroke-width="5" stroke="black" stroke-linejoin="round"></path><path d="M53.379 29.592h-3.086v-3.965h-2.117v3.965h-3.38v-3.965h-2.117v3.965H39.21v-3.965h-2.117v3.965h-3.086c-2.683 0-4.866 2.182-4.866 4.865v19.372c0 2.683 2.183 4.865 4.866 4.865h3.086v3.784h2.117v-3.784h3.469v3.784h2.117v-3.784h3.38v3.784h2.117v-3.784h3.086c2.682 0 4.865-2.183 4.865-4.865V34.458C58.244 31.774 56.061 29.592 53.379 29.592zM57.163 53.829c0 2.086-1.697 3.784-3.784 3.784H34.007c-2.086 0-3.784-1.698-3.784-3.784V34.458c0-2.086 1.698-3.784 3.784-3.784h19.372c2.087 0 3.784 1.698 3.784 3.784V53.829z" fill="black" stroke-width="5" stroke="black" stroke-linejoin="round"></path></g></svg></g></svg></g></svg></g></svg></g></svg></g></mask><g mask="url(#1412976f-a1f0-4ef2-83ea-952bb79d9a15)"><g><path transform="translate(136.46955,247.18625) scale(7.18107,7.18107)" d="M6.15-4.47v-26.05c0-1.953-1.123-2.93-3.37-2.93v0c-0.353 0-0.53-0.063-0.53-0.19v0-0.59c0-0.127 0.063-0.19 0.19-0.19v0h12.23c0.133 0 0.2 0.063 0.2 0.19v0 0.59c0 0.127-0.36 0.19-1.08 0.19-0.713 0-1.37 0.23-1.97 0.69-0.607 0.453-0.91 1.387-0.91 2.8v0 26.05c0 1.953 1.133 2.93 3.4 2.93v0c0.34 0 0.51 0.067 0.51 0.2v0 0.58c0 0.133-0.067 0.2-0.2 0.2v0h-12.23c-0.127 0-0.19-0.067-0.19-0.2v0-0.58c0-0.133 0.357-0.2 1.07-0.2 0.72 0 1.38-0.227 1.98-0.68 0.6-0.453 0.9-1.39 0.9-2.81z" fill="#2a2c35" fill-rule="nonzero" stroke="none" stroke-width="1" stroke-linecap="butt" stroke-linejoin="miter" stroke-miterlimit="10" stroke-dasharray="" stroke-dashoffset="0" font-family="none" font-weight="none" font-size="none" text-anchor="none" style="mix-blend-mode: normal" data-fill-palette-color="tertiary"></path></g></g><g transform="matrix(1,0,0,1,0,38.75754036376944)"><svg viewBox="0 0 395.52 169.68491927246112" height="169.68491927246112" width="395.52"><g><svg viewBox="0 0 395.52 169.68491927246112" height="169.68491927246112" width="395.52"><g><svg viewBox="0 0 403.34038577762726 173.04000000000002" height="169.68491927246112" width="395.52"><g><svg viewBox="0 0 235.60979078485911 173.04000000000002" height="173.04000000000002" width="235.60979078485911"><g id="textblocktransform"><svg viewBox="0 0 235.60979078485911 173.04000000000002" height="173.04000000000002" width="235.60979078485911" id="textblock"><g><svg viewBox="0 0 235.60979078485911 173.04000000000002" height="173.04000000000002" width="235.60979078485911"><g transform="matrix(1,0,0,1,0,0)"><svg width="235.60979078485911" viewBox="-0.7999999999999998 -38.38 55.97 41.38" height="173.04000000000002" data-palette-color="#2a2c35"><path d="M6.15-4.47L6.15-30.52Q6.15-33.45 2.78-33.45L2.78-33.45Q2.25-33.45 2.25-33.64L2.25-33.64 2.25-34.23Q2.25-34.42 2.44-34.42L2.44-34.42 14.67-34.42Q14.87-34.42 14.87-34.23L14.87-34.23 14.87-33.64Q14.87-33.45 13.79-33.45 12.72-33.45 11.82-32.76 10.91-32.08 10.91-29.96L10.91-29.96 10.91-3.91Q10.91-0.98 14.31-0.98L14.31-0.98Q14.82-0.98 14.82-0.78L14.82-0.78 14.82-0.2Q14.82 0 14.62 0L14.62 0 2.39 0Q2.2 0 2.2-0.2L2.2-0.2 2.2-0.78Q2.2-0.98 3.27-0.98 4.35-0.98 5.25-1.66 6.15-2.34 6.15-4.47L6.15-4.47ZM26.8-0.2L26.8-0.78Q26.8-0.98 27.02-0.98L27.02-0.98 27.71-0.98Q30.1-0.98 31.55-2 33.01-3.03 33.01-4.39L33.01-4.39 33.01-31.42Q33.01-31.93 32.8-31.99 32.59-32.06 32.3-32.1L32.3-32.1 22.92-32.1Q20.65-31.62 19.94-28.61L19.94-28.61Q19.55-27 19.48-26.55 19.41-26.1 19.21-26.1L19.21-26.1 18.77-26.1Q18.63-26.1 18.63-26.2L18.63-26.2 18.63-27 19.53-34.62Q19.68-35.38 20.02-35.38 20.36-35.38 20.75-34.9 21.14-34.42 22.24-34.42L22.24-34.42 48.56-34.42Q49.61-34.42 49.83-34.67 50.05-34.91 50.24-35.14 50.44-35.38 50.74-35.38 51.05-35.38 51.13-35.13 51.22-34.89 51.27-34.62L51.27-34.62 52.17-27 52.17-26.2Q52.17-26.1 52.02-26.1L52.02-26.1 51.58-26.1Q51.39-26.1 51.32-26.46L51.32-26.46Q50.93-28.91 50.19-30.33 49.46-31.76 47.87-32.1L47.87-32.1 38.47-32.1Q38.18-32.06 37.97-31.99 37.77-31.93 37.77-31.42L37.77-31.42 37.77-4.39Q37.77-3.03 39.22-2 40.67-0.98 43.06-0.98L43.06-0.98 43.77-0.98Q43.97-0.98 43.97-0.78L43.97-0.78 43.97-0.2Q43.97 0 43.77 0L43.77 0 27 0Q26.8 0 26.8-0.2L26.8-0.2Z" opacity="1" transform="matrix(1,0,0,1,0,0)" fill="#2a2c35" class="wordmark-text-0" data-fill-palette-color="primary" id="text-0"></path></svg></g></svg></g></svg></g></svg></g><g transform="matrix(1,0,0,1,257.73353507258435,13.716346715099391)"><svg viewBox="0 0 145.60685070504294 145.60730656980124" height="145.60730656980124" width="145.60685070504294"><g><svg xmlns="http://www.w3.org/2000/svg" xmlns:xlink="http://www.w3.org/1999/xlink" version="1.1" x="0" y="0" viewBox="10.07425 10.073749999999997 79.85199999999998 79.85225" enable-background="new 0 0 100 100" xml:space="preserve" height="145.60730656980124" width="145.60685070504294" class="icon-icon-0" data-fill-palette-color="accent" id="icon-0"><g fill="#2a2c35" data-fill-palette-color="accent"><path fill="none" d="M26.032 26.031c-9.711 9.71-9.711 25.453 0 35.163 9.711 9.713 25.455 9.713 35.166 0 9.71-9.71 9.71-25.452 0.001-35.163C51.485 16.32 35.742 16.32 26.032 26.031zM58.244 53.829c0 2.683-2.184 4.865-4.865 4.865h-3.086v3.784h-2.117v-3.784h-3.38v3.784h-2.117v-3.784H39.21v3.784h-2.117v-3.784h-3.086c-2.683 0-4.866-2.183-4.866-4.865V34.458c0-2.683 2.183-4.865 4.866-4.865h3.086v-3.965h2.117v3.965h3.469v-3.965h2.117v3.965h3.38v-3.965h2.117v3.965h3.086c2.682 0 4.865 2.182 4.865 4.865V53.829z"></path><path fill="none" d="M53.379 30.673H34.007c-2.086 0-3.784 1.698-3.784 3.784v19.372c0 2.086 1.698 3.784 3.784 3.784h19.372c2.087 0 3.784-1.698 3.784-3.784V34.458C57.163 32.371 55.466 30.673 53.379 30.673zM54.437 50.563c0 2.388-1.937 4.324-4.324 4.324h-12.84c-2.388 0-4.325-1.937-4.325-4.324v-12.84c0-2.389 1.937-4.325 4.325-4.325h12.84c2.388 0 4.324 1.937 4.324 4.325V50.563z"></path><path d="M88.064 79.066L71.396 62.4c8.845-13.048 7.494-30.943-4.064-42.502-13.1-13.099-34.336-13.099-47.435 0C6.8 32.995 6.8 54.232 19.897 67.329 31.458 78.89 49.353 80.239 62.4 71.395l16.668 16.668c2.483 2.484 6.512 2.484 8.996 0C90.547 85.577 90.547 81.551 88.064 79.066zM61.197 61.194c-9.711 9.713-25.454 9.713-35.166 0-9.711-9.71-9.711-25.453 0-35.163 9.71-9.711 25.454-9.711 35.167 0C70.907 35.742 70.907 51.484 61.197 61.194z" fill="#2a2c35" data-fill-palette-color="accent"></path><path d="M50.112 33.398h-12.84c-2.388 0-4.325 1.937-4.325 4.325v12.84c0 2.388 1.937 4.324 4.325 4.324h12.84c2.388 0 4.324-1.937 4.324-4.324v-12.84C54.437 35.335 52.5 33.398 50.112 33.398z" fill="#2a2c35" data-fill-palette-color="accent"></path><path d="M53.379 29.592h-3.086v-3.965h-2.117v3.965h-3.38v-3.965h-2.117v3.965H39.21v-3.965h-2.117v3.965h-3.086c-2.683 0-4.866 2.182-4.866 4.865v19.372c0 2.683 2.183 4.865 4.866 4.865h3.086v3.784h2.117v-3.784h3.469v3.784h2.117v-3.784h3.38v3.784h2.117v-3.784h3.086c2.682 0 4.865-2.183 4.865-4.865V34.458C58.244 31.774 56.061 29.592 53.379 29.592zM57.163 53.829c0 2.086-1.697 3.784-3.784 3.784H34.007c-2.086 0-3.784-1.698-3.784-3.784V34.458c0-2.086 1.698-3.784 3.784-3.784h19.372c2.087 0 3.784 1.698 3.784 3.784V53.829z" fill="#2a2c35" data-fill-palette-color="accent"></path></g></svg></g></svg></g></svg></g></svg></g></svg></g></svg></g><defs></defs></svg><rect width="395.52" height="247.2" fill="none" stroke="none" visibility="hidden"></rect></g></svg></g></svg>